<?xml version="1.0" encoding="iso-8859-1"?>
<!-- Generator: Adobe Illustrator 16.0.0, SVG Export Plug-In . SVG Version: 6.00 Build 0)  -->
<!DOCTYPE svg PUBLIC "-//W3C//DTD SVG 1.1//EN" "http://www.w3.org/Graphics/SVG/1.1/DTD/svg11.dtd">
<svg version="1.1" id="Capa_1" xmlns="http://www.w3.org/2000/svg" xmlns:xlink="http://www.w3.org/1999/xlink" x="0px" y="0px"
	 width="475.082px" height="475.082px" viewBox="0 0 475.082 475.082" style="enable-background:new 0 0 475.082 475.082;"
	 xml:space="preserve">
<g>
	<path d="M473.371,433.11c-10.657-3.997-20.458-6.563-29.407-7.706c-8.945-0.767-15.516-2.95-19.701-6.567
		c-2.475-1.529-5.808-6.95-9.996-16.279c-7.806-15.604-13.989-29.786-18.555-42.537c-7.427-20.181-13.617-35.789-18.565-46.829
		c-10.845-25.311-19.982-47.678-27.401-67.092c-4.001-10.466-15.797-38.731-35.405-84.796L255.813,24.265l-3.142-5.996h-15.129
		h-21.414l-79.94,206.704L68.523,400.847c-5.33,9.896-9.9,16.372-13.706,19.417c-3.996,2.848-14.466,5.805-31.405,8.843
		c-11.042,2.102-18.654,3.812-22.841,5.141L0,456.812h5.996c16.37,0,32.264-1.334,47.679-3.997l13.706-2.279
		c53.868,3.806,87.082,5.708,99.642,5.708c0.381-1.902,0.571-4.476,0.571-7.706c0-5.715-0.094-11.231-0.287-16.563
		c-3.996-0.568-7.851-1.143-11.561-1.711c-3.711-0.575-6.567-1.047-8.565-1.431c-1.997-0.373-3.284-0.568-3.855-0.568
		c-14.657-2.094-24.46-5.14-29.407-9.134c-3.236-2.282-4.854-6.375-4.854-12.278c0-3.806,2.19-11.796,6.567-23.982
		c14.277-39.776,24.172-65.856,29.692-78.224l128.483,0.568l26.269,65.096l13.411,32.541c1.144,3.241,1.711,6.283,1.711,9.138
		s-1.14,5.428-3.426,7.707c-2.285,1.905-8.753,4.093-19.417,6.563l-37.404,7.994c-0.763,6.283-1.136,13.702-1.136,22.271
		l16.56-0.575l57.103-3.138c10.656-0.38,23.51-0.575,38.547-0.575c18.264,0,36.251,0.763,53.957,2.282
		c21.313,1.523,39.588,2.283,54.819,2.283c0.192-2.283,0.281-4.754,0.281-7.423C475.082,445.957,474.513,440.537,473.371,433.11z
		 M251.245,270.941c-2.666,0-7.662-0.052-14.989-0.144c-7.327-0.089-18.649-0.233-33.973-0.425
		c-15.321-0.195-29.93-0.383-43.824-0.574l48.535-128.477c7.424,15.037,16.178,35.117,26.264,60.242
		c11.425,27.79,20.179,50.727,26.273,68.809L251.245,270.941z"/>
</g>
<g>
</g>
<g>
</g>
<g>
</g>
<g>
</g>
<g>
</g>
<g>
</g>
<g>
</g>
<g>
</g>
<g>
</g>
<g>
</g>
<g>
</g>
<g>
</g>
<g>
</g>
<g>
</g>
<g>
</g>
</svg>
